<svg width="56" height="56" viewBox="0 0 56 56" fill="none" xmlns="http://www.w3.org/2000/svg">
<rect width="56" height="56" rx="28" fill="#1C1C1E"/>
<path d="M34.2522 11.896C34.2522 10.7973 33.0221 10.7973 32.4753 10.9346C33.2408 10.3303 34.1383 10.4768 34.4573 10.66L41.8489 14.2843C42.5533 14.6297 43 15.3483 43 16.1357V39.9789C43 40.7769 42.5414 41.5031 41.8228 41.8429L34.8673 45.1317C34.3889 45.3377 33.3501 45.8458 32.4753 45.1317C33.5688 45.3377 34.1611 44.5595 34.2522 44.033V11.896Z" fill="url(#paint0_linear_71_52757)"/>
<path d="M32.564 10.9148C33.1443 10.8001 34.2522 10.8533 34.2522 11.8959V20.1031L11.842 37.0565C11.4503 37.3529 10.899 37.3037 10.5654 36.9427L8.25567 34.4434C7.89383 34.0519 7.91915 33.439 8.31203 33.079L32.4753 10.9346L32.564 10.9148Z" fill="url(#paint1_linear_71_52757)"/>
<path d="M34.2522 35.9632L11.842 19.0098C11.4503 18.7134 10.899 18.7626 10.5654 19.1236L8.25567 21.6229C7.89383 22.0144 7.91915 22.6273 8.31203 22.9873L32.4753 45.1317V45.1317C33.5688 45.3377 34.1611 44.5595 34.2522 44.033V35.9632Z" fill="url(#paint2_linear_71_52757)"/>
<defs>
<linearGradient id="paint0_linear_71_52757" x1="37.7377" y1="10.5" x2="37.7377" y2="45.5" gradientUnits="userSpaceOnUse">
<stop stop-color="#32B5F1"/>
<stop offset="1" stop-color="#2B9FED"/>
</linearGradient>
<linearGradient id="paint1_linear_71_52757" x1="34.2522" y1="14.9174" x2="9.27713" y2="35.8813" gradientUnits="userSpaceOnUse">
<stop stop-color="#0F6FB3"/>
<stop offset="0.270551" stop-color="#1279B7"/>
<stop offset="0.421376" stop-color="#1176B5"/>
<stop offset="0.618197" stop-color="#0E69AC"/>
<stop offset="0.855344" stop-color="#0F70AF"/>
<stop offset="1" stop-color="#0F6DAD"/>
</linearGradient>
<linearGradient id="paint2_linear_71_52757" x1="9.44402" y1="20.4796" x2="34.3489" y2="41.1008" gradientUnits="userSpaceOnUse">
<stop stop-color="#1791D2"/>
<stop offset="1" stop-color="#1173C5"/>
</linearGradient>
</defs>
</svg>
